<svg height="44" viewBox="0 0 100 44" width="100" xmlns="http://www.w3.org/2000/svg"><path d="m77.315 22.695c2.948 0 4.9 3.611 6.737 6.2 1.368 1.885 3.948 4.58 6.579 4.58a3.118 3.118 0 0 0 3.421-3.287 2.99 2.99 0 0 0 -2.132-2.988.5.5 0 0 1 -.29-.728 2.455 2.455 0 0 1 2.4-1.778 3.2 3.2 0 0 1 2.97 3.391c0 2.426-2.1 4.744-3.053 5.715a7.988 7.988 0 0 0 -1.368 1.617c-1.79 3.126-6.738 4.583-10.317 4.583a18.264 18.264 0 0 1 -10.789-3.343c-2.788-2.21-3.789-4.2-3.789-6.361a3.416 3.416 0 0 1 1.684-3.233c-1.79-2.831-3.947-6.172-8.21-6.172-4.316 0-5.973 2.856-5.973 6.036 0 5.095 4.263 7.736 6.21 7.736.474 0 .474.325.184.486a5.272 5.272 0 0 1 -3.211 1.186c-3.211 0-6.367-3.18-6.367-7.25-.001-5.906 5.684-10.085 10.421-10.085 3.105 0 5.525 1.457 8.052 4.96 1.632 2.264 3.947 6.658 7.368 9.461 3.158 2.533 5.895 3.126 7.683 3.126h1.052v-.27c-3.894-.861-6-3.4-7.21-4.527a33.081 33.081 0 0 1 -5.579-7.386 4.288 4.288 0 0 1 3.474-1.67h.053zm-52.63 0c-2.948 0-4.9 3.611-6.737 6.2-1.368 1.885-3.948 4.58-6.579 4.58a3.118 3.118 0 0 1 -3.421-3.287 2.99 2.99 0 0 1 2.132-2.988.5.5 0 0 0 .29-.728 2.455 2.455 0 0 0 -2.4-1.778 3.2 3.2 0 0 0 -2.97 3.391c0 2.426 2.1 4.744 3.052 5.715a7.988 7.988 0 0 1 1.368 1.617c1.791 3.126 6.739 4.583 10.318 4.583a18.264 18.264 0 0 0 10.789-3.343c2.788-2.21 3.789-4.2 3.789-6.361a3.416 3.416 0 0 0 -1.684-3.233c1.79-2.831 3.947-6.172 8.21-6.172 4.316 0 5.973 2.856 5.973 6.036 0 5.095-4.263 7.736-6.21 7.736-.474 0-.474.325-.184.486a5.272 5.272 0 0 0 3.211 1.186c3.211 0 6.367-3.18 6.367-7.25.001-5.906-5.684-10.085-10.421-10.085-3.105 0-5.525 1.457-8.052 4.96-1.632 2.264-3.948 6.658-7.368 9.461-3.158 2.533-5.895 3.126-7.684 3.126h-1.052v-.27c3.895-.861 6-3.4 7.21-4.527a33.081 33.081 0 0 0 5.579-7.386 4.288 4.288 0 0 0 -3.473-1.67h-.053z" fill="#f6f6f7" fill-rule="evenodd" opacity=".3"/></svg>