<svg enable-background="new 0 0 32 32" viewBox="0 0 32 32" xmlns="http://www.w3.org/2000/svg"><circle cx="16" cy="16" fill="#00659b" r="16"/><g fill="#fff"><path d="m23.8 20.5c0 .1-.1.1-.2.1-1.3 0-2.6 0-3.9 0 0 0 0 0-.1 0 0 0 0 0 0-.1 0-.3 0-.6 0-.9 0-.2.1-.2.2-.2h2.3.1c0-.2 0-.4 0-.7-.9 0-1.7 0-2.6 0v-.1c0-1.7 0-3.4 0-5 0-.2 0-.2.2-.2h3.9c.1 2.4.1 4.7.1 7.1zm-2.7-2.9c.1 0 .1 0 0 0h.9c.2 0 .2-.1.2-.2 0-.9 0-1.8 0-2.7 0 0 0 0 0-.1-.3 0-.6 0-.9 0-.1 0-.1 0-.2.1v.1 2.2z"/><path d="m8.2 13.5c0-.1.1-.1.2-.1h2.3.1v-.1c0-.6 0-1.1 0-1.7 0-.2.1-.2.2-.2h1.2.1v.1 7 .1c0 .1-.1.1-.1.1h-.1c-1.3 0-2.6 0-3.9 0 0-1.7 0-3.4 0-5.2zm1.5 4.1c.1 0 .1 0 0 0h.9c.2 0 .2-.1.2-.2 0-.9 0-1.8 0-2.7 0 0 0 0 0-.1-.3 0-.6 0-1 0-.1 0-.1 0-.2.1v.1 2.5c.1.1.1.2.1.3z"/><path d="m19.1 13.4s0 .1 0 0v6.9c0 .2 0 .2-.2.2-1.3 0-2.6 0-3.9 0 0 0 0 0-.1 0 0-.1 0-.2 0-.3 0-.2 0-.4 0-.6s.1-.2.2-.2h2.3.1c0-.2 0-.4 0-.7-.9 0-1.7 0-2.6 0v-.1c0-1.7 0-3.4 0-5 0-.2 0-.2.2-.2h4c-.1 0 0 0 0 0zm-2.7 4.2h.9c.1 0 .1 0 .1-.1v-.1c0-.9 0-1.8 0-2.7 0 0 0 0 0-.1-.3 0-.6 0-.9 0-.1 0-.1 0-.1.1v.1 2.8c0-.1 0 0 0 0z"/><path d="m14.4 13.4s0 .1 0 0v5.1.1c0 .1-.1.1-.1.1-.5 0-.9 0-1.4 0v-.1c0-1.7 0-3.4 0-5 0-.2 0-.2.2-.2h1.3c-.1 0 0 0 0 0z"/><path d="m14.4 11.4v1c0 .1-.1.2-.2.2-.4 0-.9 0-1.3 0 0-.3 0-.6 0-1 0-.1.1-.2.2-.2z"/></g></svg>