<svg enable-background="new 0 0 32 32" viewBox="0 0 32 32" xmlns="http://www.w3.org/2000/svg"><path d="m4.7 27.3c6.2 6.2 16.4 6.2 22.6 0s6.2-16.4 0-22.6-16.4-6.2-22.6 0-6.3 16.4 0 22.6z" fill="#bb262c"/><g fill="#fff"><path d="m14.2 16 .8.7c.5.4 1.3.4 1.9 0l.8-.7.9-.8 5.8-4.7c-.2-.8-.9-1.4-1.7-1.4h-13.6c-.8 0-1.5.6-1.7 1.4l5.8 4.7zm-6.8-4.2v8l5-4z"/><path d="m17.7 17.4c-.5.4-1.1.6-1.7.6s-1.2-.2-1.7-.6l-1-.8-5.9 4.8c.1.4.3.8.6 1.1.1.1.3.2.5.3s.4.1.7.1h13.7c.3 0 .6-.1.8-.2s.3-.2.5-.4c.2-.3.4-.6.4-1l-5.9-4.8zm2-1.6 5 4v-8z"/></g></svg>