<svg height="32" viewBox="0 0 1024 1024" width="32" xmlns="http://www.w3.org/2000/svg"><path d="m0 512a512 512 0 1 0 1024 0 512 512 0 1 0 -1024 0z" fill="#3a8bf4"/><path d="m442.944 524.821333v278.4a7.232 7.232 0 0 0 7.232 7.232h103.402667a7.232 7.232 0 0 0 7.232-7.232v-282.922666h74.944a7.232 7.232 0 0 0 7.232-6.634667l7.210666-85.333333a7.232 7.232 0 0 0 -7.210666-7.872h-82.154667v-60.373334a25.6 25.6 0 0 1 25.6-25.6h57.749333a7.232 7.232 0 0 0 7.232-7.232v-85.333333a7.232 7.232 0 0 0 -7.232-7.232h-97.514666a103.722667 103.722667 0 0 0 -103.722667 103.722667v82.048h-51.669333a7.274667 7.274667 0 0 0 -7.274667 7.232v85.333333a7.253333 7.253333 0 0 0 7.274667 7.232h51.690666z" fill="#fff"/></svg>