<svg enable-background="new 0 0 32 32" viewBox="0 0 32 32" xmlns="http://www.w3.org/2000/svg"><ellipse cx="16.4" cy="16.1" fill="#fff" rx="14.1" ry="13.1"/><path d="m16 32c-8.8 0-16-7.2-16-16 0-6.4 3.9-12.2 9.8-14.7 8.1-3.4 17.5.4 21 8.5 2.5 6 1.2 12.9-3.4 17.5-3.1 3-7.1 4.7-11.4 4.7zm-2.9-23.9c-.2 0-.4 0-.6 0-2.2.1-4.2 1-5.7 2.6s-2.4 3.7-2.3 5.8c0 3.6 2.3 6.8 5.7 8 .9.3 1.8.5 2.8.5 2.4.1 4.7-1 6.3-2.9 1.4-2 2-4.4 1.7-6.7-1.3 0-2.7 0-4.5 0-1.2 0-2.6 0-3.6 0v2.9h2.8 2c-.3 1.4-1.4 2.6-2.7 3.2-.6.3-1.3.4-2 .4-1.1 0-2.2-.4-3.1-1s-1.6-1.6-2-2.6c-1-2.8.5-5.8 3.3-6.8h.1c.4-.2.9-.2 1.4-.2 1.3.1 2.5.5 3.6 1.2.6-.6 1.3-1.3 2.1-2.2-1.3-1.4-3.3-2.1-5.3-2.2zm12.8 12.2h.8c0-.4 0-.8 0-1.2v-.3c0-.3 0-.6 0-.9h1.3 1.2v-2.4h-2.4c0-.4 0-.8 0-1.3v-1.1h-2.4v2.4c-.5 0-1.1 0-1.6 0h-.8v2.4h1.2 1.2v1.6.8z" fill="#dc4e41"/></svg>