<svg enable-background="new 0 0 42 42" viewBox="0 0 42 42" xmlns="http://www.w3.org/2000/svg" xmlns:xlink="http://www.w3.org/1999/xlink"><linearGradient id="a" gradientUnits="userSpaceOnUse" x1="10.4982" x2="31.5018" y1="2.8104" y2="39.1896"><stop offset="0" stop-color="#4cace2"/><stop offset="1" stop-color="#4e83c4"/></linearGradient><circle cx="21" cy="21" fill="url(#a)" r="21"/><path d="m15.7 31.7c-1.3 0-2.7-.5-3.8-1.6-2.2-2.2-2.2-5.5 0-7.7l2.8-2.8 1.9 1.9-2.8 2.8c-1.1 1.1-1.1 2.7 0 3.8s2.7 1.1 3.8 0l3.8-3.8c.5-.5.8-1.2.8-1.9s-.3-1.3-.7-1.9l-1.5-1.3 1.9-1.9 1.5 1.5c.9.9 1.5 2.3 1.5 3.8s-.5 2.8-1.6 3.8l-3.8 3.6c-.9 1.1-2.4 1.7-3.8 1.7zm4.4-6.9-1.5-1.3c-2.2-2.2-2.2-5.5 0-7.7l3.8-3.8c2.2-2.2 5.5-2.2 7.7 0s2.2 5.5 0 7.7l-2.8 2.8-1.9-1.9 2.8-2.8c1.1-1.1 1.1-2.7 0-3.8s-2.8-1.1-3.8 0l-3.9 3.6c-1.1 1.1-1.1 2.7 0 3.8l1.5 1.5c-.1 0-1.9 1.9-1.9 1.9z" fill="#fff"/></svg>