<svg height="32" viewBox="0 0 1024 1024" width="32" xmlns="http://www.w3.org/2000/svg"><path d="m25.68192 519.61856a491.52 491.52 0 1 0 983.04 0 491.52 491.52 0 1 0 -983.04 0z" fill="#3072f3"/><path d="m517.20192 765.37856c-33.46432-.08192-60.6208-26.37824-60.70272-58.85952 0-32.31744 27.32032-58.7776 60.70272-58.7776s60.66176 26.46016 60.66176 58.7776c0 32.39936-27.27936 58.85952-60.66176 58.85952m78.88896-444.17024s0 2.90816 0 0c0 2.90816-51.6096 235.3152-51.6096 235.3152s3.03104-17.65376 0 0-12.0832 26.46016-27.27936 26.46016c-15.1552 0-24.24832-11.75552-27.27936-29.40928-6.144-17.65376-51.6096-226.5088-51.6096-226.5088 0-5.85728-3.03104-11.79648-3.03104-14.7456 0-44.11392 36.4544-79.42144 81.92-79.42144s81.92 35.30752 81.92 79.4624c0 0-3.03104 5.89824-3.03104 8.84736" fill="#fff"/></svg>