<svg viewBox="0 0 200 200" xmlns="http://www.w3.org/2000/svg"><circle cx="101.17" cy="107.5" fill="#5da7cf" r="90"/><g fill="#fff"><path d="m132.93 118.57h-63.53a3.1 3.1 0 0 1 -3.1-3.1v-44.55a3.1 3.1 0 0 1 3.1-3.1h63.53a3.1 3.1 0 0 1 3.1 3.1v44.55a3.1 3.1 0 0 1 -3.1 3.1zm-60.43-6.2h57.33v-38.37h-57.33z"/><path d="m87.77 96.73a8.93 8.93 0 1 1 8.93-8.93 8.93 8.93 0 0 1 -8.93 8.93zm0-11.66a2.73 2.73 0 1 0 2.73 2.73 2.73 2.73 0 0 0 -2.73-2.73z"/><path d="m132.93 108.27a3.1 3.1 0 0 1 -2.76-1.69 26.59 26.59 0 0 0 -4.75-6.09 18.92 18.92 0 0 0 -13.33-5.75c-5 0-7.33 2.7-10.23 6.11s-6.3 7.41-12.72 7.41a30.13 30.13 0 0 1 -22.14-9.79l4.78-4a22.15 22.15 0 0 0 4.65 3.85 23.48 23.48 0 0 0 12.7 3.72c3.38 0 5.16-1.89 8-5.23 3.14-3.7 7.05-8.3 15-8.3a25.31 25.31 0 0 1 17.8 7.64 32.33 32.33 0 0 1 5.81 7.57 3.1 3.1 0 0 1 -2.76 4.52z"/></g><rect fill="none" height="103.56" rx="2" stroke="#fff" stroke-miterlimit="10" stroke-width="8" width="93.33" x="54.5" y="55.72"/><rect fill="#fff" height="6.88" rx="3.25" width="69.43" x="66.6" y="128.16"/><rect fill="#fff" height="6.88" rx="3.25" width="69.43" x="66.6" y="139.51"/></svg>