<svg enable-background="new 0 0 42 42" viewBox="0 0 42 42" xmlns="http://www.w3.org/2000/svg" xmlns:xlink="http://www.w3.org/1999/xlink"><linearGradient id="a" gradientTransform="matrix(1 0 0 -1 0 44)" gradientUnits="userSpaceOnUse" x1="10.4982" x2="31.5018" y1="41.1896" y2="4.8104"><stop offset="0" stop-color="#4f5963"/><stop offset="1" stop-color="#38424c"/></linearGradient><circle cx="21" cy="21" fill="url(#a)" r="21"/><g fill="#fff"><path d="m18.6 19.8h-7.3c-.7 0-1.2-.5-1.2-1.2v-7.3c0-.7.6-1.2 1.2-1.2h7.3c.7 0 1.2.5 1.2 1.2v7.3c0 .6-.6 1.2-1.2 1.2zm-6.2-2.5h4.9v-4.9h-4.9zm6.2 14.7h-7.3c-.7 0-1.2-.6-1.2-1.2v-7.3c0-.7.6-1.2 1.2-1.2h7.3c.7 0 1.2.6 1.2 1.2v7.3c0 .6-.6 1.2-1.2 1.2zm-6.2-2.4h4.9v-4.9h-4.9zm18.4-9.8h-7.3c-.7 0-1.2-.5-1.2-1.2v-7.3c0-.7.6-1.2 1.2-1.2h7.3c.7 0 1.2.5 1.2 1.2v7.3c0 .6-.6 1.2-1.2 1.2zm-6.1-2.5h4.9v-4.9h-4.9zm-1.3 14.7c-.7 0-1.2-.6-1.2-1.2v-7.3c0-.7.6-1.2 1.2-1.2h3.7c.7 0 1.2.6 1.2 1.2v2.4h1.2v-2.4c0-.7.5-1.2 1.2-1.2s1.2.6 1.2 1.2v3.7c0 .7-.6 1.2-1.2 1.2h-3.7c-.7 0-1.2-.6-1.2-1.2v-2.4h-1.2v6.1c.1.5-.5 1.1-1.2 1.1z"/><path d="m30.8 32h-3.7c-.7 0-1.2-.6-1.2-1.2s.5-1.2 1.2-1.2h3.7c.7 0 1.2.5 1.2 1.2s-.6 1.2-1.2 1.2z"/></g></svg>