<svg enable-background="new 0 0 32 32" viewBox="0 0 32 32" xmlns="http://www.w3.org/2000/svg"><circle cx="17" cy="16" fill="#fff" r="13.5"/><path d="m16 32c-8.8 0-16-7.2-16-16s7.2-16 16-16 16 7.2 16 16-7.2 16-16 16zm10.7-16.4c0-.6-.2-1.2-.7-1.7-.4-.5-1.1-.7-1.7-.7-.7 0-1.2.2-1.7.7-1.7-1.2-3.8-1.8-6.2-1.9l1.2-5.6 4 .9c0 .5.2.9.5 1.2s.8.5 1.2.5c.5 0 .9-.2 1.3-.5s.5-.8.5-1.3-.2-.9-.5-1.3c-.3-.3-.8-.5-1.3-.5-.7 0-1.2.3-1.6 1l-4.4-1c-.2-.1-.4 0-.5.3l-1.2 6.3c-2.4.1-4.4.7-6.1 1.9-.5-.5-1-.7-1.7-.7-.6 0-1.2.2-1.7.7s-.7 1-.7 1.7c0 .5.1.9.4 1.3.2.4.6.7 1 .9-.1.4-.1.7-.1 1.1 0 1.9.9 3.5 2.8 4.8s4.1 2 6.7 2 4.9-.7 6.7-2c1.9-1.3 2.8-2.9 2.8-4.8 0-.4 0-.8-.1-1.1.4-.2.7-.5 1-.9-.1-.4.1-.9.1-1.3zm-6.8 5.9c.2.2.2.4 0 .6-.8.8-2.1 1.2-3.9 1.2s-3.1-.4-3.9-1.2c-.2-.2-.2-.4 0-.6.1-.1.2-.1.3-.1s.2 0 .3.1c.6.6 1.8 1 3.3 1 1.6 0 2.7-.3 3.3-1 .1-.1.2-.1.3-.1.2 0 .3.1.3.1zm-6-3.5c0 .5-.2.9-.5 1.2s-.8.5-1.2.5c-.5 0-.9-.2-1.3-.5-.3-.3-.5-.8-.5-1.2 0-.5.2-.9.5-1.3.3-.3.8-.5 1.3-.5s.9.2 1.2.5.5.8.5 1.3zm7.8 0c0 .5-.2.9-.5 1.2s-.8.5-1.3.5-.9-.2-1.2-.5-.5-.8-.5-1.2c0-.5.2-.9.5-1.3s.8-.5 1.2-.5c.5 0 .9.2 1.3.5.3.3.5.7.5 1.3z" fill="#ff4500"/></svg>